<mxfile host="app.diagrams.net" modified="2023-12-23T19:08:21.982Z" agent="Mozilla/5.0 (Windows NT 10.0; Win64; x64) AppleWebKit/537.36 (KHTML, like Gecko) Chrome/120.0.0.0 Safari/537.36" etag="DxJPdIGWbIHX1dNShbON" version="22.1.11" type="google">
  <diagram name="Page-1" id="LbmXctJZHchuXy6nirZh">
    <mxGraphModel grid="1" page="1" gridSize="10" guides="1" tooltips="1" connect="1" arrows="1" fold="1" pageScale="1" pageWidth="827" pageHeight="1169" math="0" shadow="0">
      <root>
        <mxCell id="0" />
        <mxCell id="1" parent="0" />
        <mxCell id="Iu8UXRmon2b7nD4LNWUl-22" value="" style="group" connectable="0" vertex="1" parent="1">
          <mxGeometry x="-30" y="100" width="850" height="260" as="geometry" />
        </mxCell>
        <mxCell id="Iu8UXRmon2b7nD4LNWUl-3" value="Configuracion" style="rounded=0;whiteSpace=wrap;html=1;" vertex="1" parent="Iu8UXRmon2b7nD4LNWUl-22">
          <mxGeometry x="510" width="120" height="60" as="geometry" />
        </mxCell>
        <mxCell id="Iu8UXRmon2b7nD4LNWUl-8" style="edgeStyle=orthogonalEdgeStyle;rounded=0;orthogonalLoop=1;jettySize=auto;html=1;exitX=1;exitY=0.25;exitDx=0;exitDy=0;entryX=0;entryY=0.25;entryDx=0;entryDy=0;" edge="1" parent="Iu8UXRmon2b7nD4LNWUl-22" source="Iu8UXRmon2b7nD4LNWUl-4" target="Iu8UXRmon2b7nD4LNWUl-3">
          <mxGeometry relative="1" as="geometry" />
        </mxCell>
        <mxCell id="Iu8UXRmon2b7nD4LNWUl-4" value="Menu principal" style="rounded=0;whiteSpace=wrap;html=1;" vertex="1" parent="Iu8UXRmon2b7nD4LNWUl-22">
          <mxGeometry x="40" width="120" height="60" as="geometry" />
        </mxCell>
        <mxCell id="Iu8UXRmon2b7nD4LNWUl-9" style="edgeStyle=orthogonalEdgeStyle;rounded=0;orthogonalLoop=1;jettySize=auto;html=1;exitX=0;exitY=0.75;exitDx=0;exitDy=0;entryX=1;entryY=0.75;entryDx=0;entryDy=0;" edge="1" parent="Iu8UXRmon2b7nD4LNWUl-22" source="Iu8UXRmon2b7nD4LNWUl-3" target="Iu8UXRmon2b7nD4LNWUl-4">
          <mxGeometry relative="1" as="geometry" />
        </mxCell>
        <mxCell id="Iu8UXRmon2b7nD4LNWUl-7" value="&lt;ul style=&quot;font-size: 15px;&quot;&gt;&lt;li&gt;Cambiar los temas&lt;/li&gt;&lt;li&gt;Volumen (30 niveles)&lt;/li&gt;&lt;li&gt;Pausar, reanudar&lt;/li&gt;&lt;/ul&gt;" style="text;html=1;strokeColor=none;fillColor=none;align=center;verticalAlign=middle;whiteSpace=wrap;rounded=0;" vertex="1" parent="Iu8UXRmon2b7nD4LNWUl-22">
          <mxGeometry x="-30" y="95" width="220" height="70" as="geometry" />
        </mxCell>
        <mxCell id="Iu8UXRmon2b7nD4LNWUl-10" value="Ecualizar" style="rounded=0;whiteSpace=wrap;html=1;" vertex="1" parent="Iu8UXRmon2b7nD4LNWUl-22">
          <mxGeometry x="300" y="110" width="90" height="50" as="geometry" />
        </mxCell>
        <mxCell id="Iu8UXRmon2b7nD4LNWUl-14" style="edgeStyle=orthogonalEdgeStyle;rounded=0;orthogonalLoop=1;jettySize=auto;html=1;exitX=0.5;exitY=1;exitDx=0;exitDy=0;entryX=0.5;entryY=0;entryDx=0;entryDy=0;" edge="1" parent="Iu8UXRmon2b7nD4LNWUl-22" source="Iu8UXRmon2b7nD4LNWUl-3" target="Iu8UXRmon2b7nD4LNWUl-10">
          <mxGeometry relative="1" as="geometry" />
        </mxCell>
        <mxCell id="Iu8UXRmon2b7nD4LNWUl-11" value="Desactivar vumetro" style="rounded=0;whiteSpace=wrap;html=1;" vertex="1" parent="Iu8UXRmon2b7nD4LNWUl-22">
          <mxGeometry x="510" y="110" width="120" height="50" as="geometry" />
        </mxCell>
        <mxCell id="Iu8UXRmon2b7nD4LNWUl-13" style="edgeStyle=orthogonalEdgeStyle;rounded=0;orthogonalLoop=1;jettySize=auto;html=1;exitX=0.5;exitY=1;exitDx=0;exitDy=0;" edge="1" parent="Iu8UXRmon2b7nD4LNWUl-22" source="Iu8UXRmon2b7nD4LNWUl-3" target="Iu8UXRmon2b7nD4LNWUl-11">
          <mxGeometry relative="1" as="geometry" />
        </mxCell>
        <mxCell id="Iu8UXRmon2b7nD4LNWUl-12" value="Animaciones del vumetro (ponele)" style="rounded=0;whiteSpace=wrap;html=1;" vertex="1" parent="Iu8UXRmon2b7nD4LNWUl-22">
          <mxGeometry x="740" y="110" width="110" height="55" as="geometry" />
        </mxCell>
        <mxCell id="Iu8UXRmon2b7nD4LNWUl-15" style="edgeStyle=orthogonalEdgeStyle;rounded=0;orthogonalLoop=1;jettySize=auto;html=1;exitX=0.5;exitY=1;exitDx=0;exitDy=0;entryX=0.5;entryY=0;entryDx=0;entryDy=0;" edge="1" parent="Iu8UXRmon2b7nD4LNWUl-22" source="Iu8UXRmon2b7nD4LNWUl-3" target="Iu8UXRmon2b7nD4LNWUl-12">
          <mxGeometry relative="1" as="geometry" />
        </mxCell>
        <mxCell id="Iu8UXRmon2b7nD4LNWUl-16" value="Ajustar bandas" style="rounded=0;whiteSpace=wrap;html=1;" vertex="1" parent="Iu8UXRmon2b7nD4LNWUl-22">
          <mxGeometry x="230" y="210" width="100" height="50" as="geometry" />
        </mxCell>
        <mxCell id="Iu8UXRmon2b7nD4LNWUl-18" style="edgeStyle=orthogonalEdgeStyle;rounded=0;orthogonalLoop=1;jettySize=auto;html=1;exitX=0.5;exitY=1;exitDx=0;exitDy=0;entryX=0.5;entryY=0;entryDx=0;entryDy=0;" edge="1" parent="Iu8UXRmon2b7nD4LNWUl-22" source="Iu8UXRmon2b7nD4LNWUl-10" target="Iu8UXRmon2b7nD4LNWUl-16">
          <mxGeometry relative="1" as="geometry" />
        </mxCell>
        <mxCell id="Iu8UXRmon2b7nD4LNWUl-17" value="Presets de bandas" style="rounded=0;whiteSpace=wrap;html=1;" vertex="1" parent="Iu8UXRmon2b7nD4LNWUl-22">
          <mxGeometry x="360" y="210" width="100" height="50" as="geometry" />
        </mxCell>
        <mxCell id="Iu8UXRmon2b7nD4LNWUl-19" style="edgeStyle=orthogonalEdgeStyle;rounded=0;orthogonalLoop=1;jettySize=auto;html=1;exitX=0.5;exitY=1;exitDx=0;exitDy=0;entryX=0.5;entryY=0;entryDx=0;entryDy=0;" edge="1" parent="Iu8UXRmon2b7nD4LNWUl-22" source="Iu8UXRmon2b7nD4LNWUl-10" target="Iu8UXRmon2b7nD4LNWUl-17">
          <mxGeometry relative="1" as="geometry" />
        </mxCell>
        <mxCell id="Iu8UXRmon2b7nD4LNWUl-23" value="App" style="rounded=0;whiteSpace=wrap;html=1;" vertex="1" parent="1">
          <mxGeometry x="307.5" y="880" width="120" height="60" as="geometry" />
        </mxCell>
        <mxCell id="Iu8UXRmon2b7nD4LNWUl-24" value="&lt;b&gt;&lt;font style=&quot;font-size: 20px;&quot;&gt;Diagrama de drivers&lt;/font&gt;&lt;/b&gt;" style="text;html=1;strokeColor=none;fillColor=none;align=center;verticalAlign=middle;whiteSpace=wrap;rounded=0;" vertex="1" parent="1">
          <mxGeometry x="277.5" y="770" width="177.5" height="60" as="geometry" />
        </mxCell>
        <mxCell id="Iu8UXRmon2b7nD4LNWUl-25" value="Concepto general" style="text;html=1;strokeColor=none;fillColor=none;align=center;verticalAlign=middle;whiteSpace=wrap;rounded=0;fontSize=20;fontStyle=1" vertex="1" parent="1">
          <mxGeometry x="330" y="20" width="125" height="40" as="geometry" />
        </mxCell>
        <mxCell id="Iu8UXRmon2b7nD4LNWUl-70" style="edgeStyle=orthogonalEdgeStyle;rounded=0;orthogonalLoop=1;jettySize=auto;html=1;exitX=0.5;exitY=0;exitDx=0;exitDy=0;entryX=0.5;entryY=1;entryDx=0;entryDy=0;" edge="1" parent="1" source="Iu8UXRmon2b7nD4LNWUl-26" target="Iu8UXRmon2b7nD4LNWUl-23">
          <mxGeometry relative="1" as="geometry">
            <Array as="points">
              <mxPoint x="52.5" y="970" />
              <mxPoint x="367.5" y="970" />
            </Array>
          </mxGeometry>
        </mxCell>
        <mxCell id="Iu8UXRmon2b7nD4LNWUl-96" style="edgeStyle=orthogonalEdgeStyle;rounded=0;orthogonalLoop=1;jettySize=auto;html=1;exitX=1;exitY=0.5;exitDx=0;exitDy=0;entryX=0;entryY=0.5;entryDx=0;entryDy=0;" edge="1" parent="1" source="Iu8UXRmon2b7nD4LNWUl-26" target="Iu8UXRmon2b7nD4LNWUl-28">
          <mxGeometry relative="1" as="geometry" />
        </mxCell>
        <mxCell id="Iu8UXRmon2b7nD4LNWUl-108" style="edgeStyle=orthogonalEdgeStyle;rounded=0;orthogonalLoop=1;jettySize=auto;html=1;exitX=1;exitY=0.5;exitDx=0;exitDy=0;entryX=0.5;entryY=1;entryDx=0;entryDy=0;" edge="1" parent="1" source="Iu8UXRmon2b7nD4LNWUl-26" target="Iu8UXRmon2b7nD4LNWUl-29">
          <mxGeometry relative="1" as="geometry" />
        </mxCell>
        <mxCell id="Iu8UXRmon2b7nD4LNWUl-26" value="Ecualizador" style="rounded=0;whiteSpace=wrap;html=1;fillColor=#dae8fc;strokeColor=#6c8ebf;" vertex="1" parent="1">
          <mxGeometry x="-7.5" y="1130" width="120" height="60" as="geometry" />
        </mxCell>
        <mxCell id="Iu8UXRmon2b7nD4LNWUl-83" style="edgeStyle=orthogonalEdgeStyle;rounded=0;orthogonalLoop=1;jettySize=auto;html=1;exitX=0.5;exitY=0;exitDx=0;exitDy=0;entryX=0.5;entryY=1;entryDx=0;entryDy=0;" edge="1" parent="1" source="Iu8UXRmon2b7nD4LNWUl-28" target="Iu8UXRmon2b7nD4LNWUl-30">
          <mxGeometry relative="1" as="geometry" />
        </mxCell>
        <mxCell id="Iu8UXRmon2b7nD4LNWUl-28" value="Vumetro" style="rounded=0;whiteSpace=wrap;html=1;" vertex="1" parent="1">
          <mxGeometry x="442.5" y="1140" width="90" height="40" as="geometry" />
        </mxCell>
        <mxCell id="Iu8UXRmon2b7nD4LNWUl-68" style="edgeStyle=orthogonalEdgeStyle;rounded=0;orthogonalLoop=1;jettySize=auto;html=1;exitX=0.5;exitY=0;exitDx=0;exitDy=0;entryX=0.5;entryY=1;entryDx=0;entryDy=0;" edge="1" parent="1" source="Iu8UXRmon2b7nD4LNWUl-29" target="Iu8UXRmon2b7nD4LNWUl-23">
          <mxGeometry relative="1" as="geometry" />
        </mxCell>
        <mxCell id="Iu8UXRmon2b7nD4LNWUl-29" value="Reproductor" style="rounded=0;whiteSpace=wrap;html=1;fillColor=#f8cecc;strokeColor=#b85450;" vertex="1" parent="1">
          <mxGeometry x="307.5" y="1000" width="120" height="60" as="geometry" />
        </mxCell>
        <mxCell id="Iu8UXRmon2b7nD4LNWUl-67" style="edgeStyle=orthogonalEdgeStyle;rounded=0;orthogonalLoop=1;jettySize=auto;html=1;exitX=0.5;exitY=0;exitDx=0;exitDy=0;entryX=0.5;entryY=1;entryDx=0;entryDy=0;" edge="1" parent="1" source="Iu8UXRmon2b7nD4LNWUl-30" target="Iu8UXRmon2b7nD4LNWUl-23">
          <mxGeometry relative="1" as="geometry" />
        </mxCell>
        <mxCell id="Iu8UXRmon2b7nD4LNWUl-30" value="UI" style="rounded=0;whiteSpace=wrap;html=1;fillColor=#fff2cc;strokeColor=#d6b656;" vertex="1" parent="1">
          <mxGeometry x="672.5" y="1000" width="120" height="60" as="geometry" />
        </mxCell>
        <mxCell id="Iu8UXRmon2b7nD4LNWUl-63" style="edgeStyle=orthogonalEdgeStyle;rounded=0;orthogonalLoop=1;jettySize=auto;html=1;exitX=0.5;exitY=0;exitDx=0;exitDy=0;" edge="1" parent="1" source="Iu8UXRmon2b7nD4LNWUl-32" target="Iu8UXRmon2b7nD4LNWUl-26">
          <mxGeometry relative="1" as="geometry">
            <Array as="points">
              <mxPoint x="-75" y="1240" />
              <mxPoint x="53" y="1240" />
            </Array>
          </mxGeometry>
        </mxCell>
        <mxCell id="Iu8UXRmon2b7nD4LNWUl-32" value="Filtros" style="rounded=0;whiteSpace=wrap;html=1;" vertex="1" parent="1">
          <mxGeometry x="-120" y="1321" width="90" height="40" as="geometry" />
        </mxCell>
        <mxCell id="Iu8UXRmon2b7nD4LNWUl-49" value="" style="group" connectable="0" vertex="1" parent="1">
          <mxGeometry x="-890" y="998" width="535" height="170.5" as="geometry" />
        </mxCell>
        <mxCell id="Iu8UXRmon2b7nD4LNWUl-33" value="x" style="text;html=1;strokeColor=none;fillColor=none;align=center;verticalAlign=middle;whiteSpace=wrap;rounded=0;" vertex="1" parent="Iu8UXRmon2b7nD4LNWUl-49">
          <mxGeometry y="85" width="60" height="30" as="geometry" />
        </mxCell>
        <mxCell id="Iu8UXRmon2b7nD4LNWUl-48" value="" style="group" connectable="0" vertex="1" parent="Iu8UXRmon2b7nD4LNWUl-49">
          <mxGeometry x="75" width="460" height="170.5" as="geometry" />
        </mxCell>
        <mxCell id="Iu8UXRmon2b7nD4LNWUl-34" value="y = x(n) + 0.3 x(n-1)" style="text;html=1;strokeColor=none;fillColor=none;align=center;verticalAlign=middle;whiteSpace=wrap;rounded=0;" vertex="1" parent="Iu8UXRmon2b7nD4LNWUl-48">
          <mxGeometry y="30" width="120" height="30" as="geometry" />
        </mxCell>
        <mxCell id="Iu8UXRmon2b7nD4LNWUl-35" value="Y11" style="text;html=1;strokeColor=none;fillColor=none;align=center;verticalAlign=middle;whiteSpace=wrap;rounded=0;" vertex="1" parent="Iu8UXRmon2b7nD4LNWUl-48">
          <mxGeometry x="170" y="30" width="60" height="30" as="geometry" />
        </mxCell>
        <mxCell id="Iu8UXRmon2b7nD4LNWUl-36" value="y = x(n) + 0.3 x(n-1)" style="text;html=1;strokeColor=none;fillColor=none;align=center;verticalAlign=middle;whiteSpace=wrap;rounded=0;" vertex="1" parent="Iu8UXRmon2b7nD4LNWUl-48">
          <mxGeometry y="85" width="120" height="30" as="geometry" />
        </mxCell>
        <mxCell id="Iu8UXRmon2b7nD4LNWUl-37" value="0-100hz" style="text;html=1;strokeColor=none;fillColor=none;align=center;verticalAlign=middle;whiteSpace=wrap;rounded=0;" vertex="1" parent="Iu8UXRmon2b7nD4LNWUl-48">
          <mxGeometry x="30" width="60" height="30" as="geometry" />
        </mxCell>
        <mxCell id="Iu8UXRmon2b7nD4LNWUl-39" value="Y12" style="text;html=1;strokeColor=none;fillColor=none;align=center;verticalAlign=middle;whiteSpace=wrap;rounded=0;" vertex="1" parent="Iu8UXRmon2b7nD4LNWUl-48">
          <mxGeometry x="170" y="85" width="60" height="30" as="geometry" />
        </mxCell>
        <mxCell id="Iu8UXRmon2b7nD4LNWUl-40" value="y = x(n) + 0.3 x(n-1)" style="text;html=1;strokeColor=none;fillColor=none;align=center;verticalAlign=middle;whiteSpace=wrap;rounded=0;" vertex="1" parent="Iu8UXRmon2b7nD4LNWUl-48">
          <mxGeometry y="140.5" width="120" height="30" as="geometry" />
        </mxCell>
        <mxCell id="Iu8UXRmon2b7nD4LNWUl-42" value="Y13" style="text;html=1;strokeColor=none;fillColor=none;align=center;verticalAlign=middle;whiteSpace=wrap;rounded=0;" vertex="1" parent="Iu8UXRmon2b7nD4LNWUl-48">
          <mxGeometry x="170" y="140.5" width="60" height="30" as="geometry" />
        </mxCell>
        <mxCell id="Iu8UXRmon2b7nD4LNWUl-43" value="Y = 1/3 * Y11 + 1/3 *Y12 + 1/3 * Y13" style="text;html=1;strokeColor=none;fillColor=none;align=center;verticalAlign=middle;whiteSpace=wrap;rounded=0;" vertex="1" parent="Iu8UXRmon2b7nD4LNWUl-48">
          <mxGeometry x="250" y="92.5" width="210" height="15" as="geometry" />
        </mxCell>
        <mxCell id="Iu8UXRmon2b7nD4LNWUl-44" value="Ecualizar&lt;br&gt;(Cambiar los coeficientes)" style="text;html=1;strokeColor=none;fillColor=none;align=center;verticalAlign=middle;whiteSpace=wrap;rounded=0;" vertex="1" parent="Iu8UXRmon2b7nD4LNWUl-48">
          <mxGeometry x="275" y="50" width="160" height="30" as="geometry" />
        </mxCell>
        <mxCell id="Iu8UXRmon2b7nD4LNWUl-75" style="edgeStyle=orthogonalEdgeStyle;rounded=0;orthogonalLoop=1;jettySize=auto;html=1;exitX=0.5;exitY=0;exitDx=0;exitDy=0;entryX=0.5;entryY=1;entryDx=0;entryDy=0;" edge="1" parent="1" source="Iu8UXRmon2b7nD4LNWUl-50" target="Iu8UXRmon2b7nD4LNWUl-28">
          <mxGeometry relative="1" as="geometry" />
        </mxCell>
        <mxCell id="Iu8UXRmon2b7nD4LNWUl-50" value="Matriz LED" style="rounded=0;whiteSpace=wrap;html=1;" vertex="1" parent="1">
          <mxGeometry x="442.5" y="1220" width="90" height="40" as="geometry" />
        </mxCell>
        <mxCell id="Iu8UXRmon2b7nD4LNWUl-66" style="edgeStyle=orthogonalEdgeStyle;rounded=0;orthogonalLoop=1;jettySize=auto;html=1;exitX=0.5;exitY=0;exitDx=0;exitDy=0;" edge="1" parent="1" source="Iu8UXRmon2b7nD4LNWUl-51">
          <mxGeometry relative="1" as="geometry">
            <mxPoint x="732.5" y="1060" as="targetPoint" />
          </mxGeometry>
        </mxCell>
        <mxCell id="Iu8UXRmon2b7nD4LNWUl-51" value="Botones" style="rounded=0;whiteSpace=wrap;html=1;" vertex="1" parent="1">
          <mxGeometry x="567.5" y="1140" width="90" height="40" as="geometry" />
        </mxCell>
        <mxCell id="Iu8UXRmon2b7nD4LNWUl-65" style="edgeStyle=orthogonalEdgeStyle;rounded=0;orthogonalLoop=1;jettySize=auto;html=1;exitX=0.5;exitY=0;exitDx=0;exitDy=0;entryX=0.5;entryY=1;entryDx=0;entryDy=0;" edge="1" parent="1" source="Iu8UXRmon2b7nD4LNWUl-54" target="Iu8UXRmon2b7nD4LNWUl-30">
          <mxGeometry relative="1" as="geometry" />
        </mxCell>
        <mxCell id="Iu8UXRmon2b7nD4LNWUl-54" value="Encoder" style="rounded=0;whiteSpace=wrap;html=1;" vertex="1" parent="1">
          <mxGeometry x="687.5" y="1140" width="90" height="40" as="geometry" />
        </mxCell>
        <mxCell id="Iu8UXRmon2b7nD4LNWUl-80" style="edgeStyle=orthogonalEdgeStyle;rounded=0;orthogonalLoop=1;jettySize=auto;html=1;exitX=0.5;exitY=0;exitDx=0;exitDy=0;entryX=0.5;entryY=1;entryDx=0;entryDy=0;" edge="1" parent="1" source="Iu8UXRmon2b7nD4LNWUl-79" target="Iu8UXRmon2b7nD4LNWUl-30">
          <mxGeometry relative="1" as="geometry">
            <Array as="points">
              <mxPoint x="857.5" y="1100" />
              <mxPoint x="732.5" y="1100" />
            </Array>
          </mxGeometry>
        </mxCell>
        <mxCell id="Iu8UXRmon2b7nD4LNWUl-79" value="Display" style="rounded=0;whiteSpace=wrap;html=1;" vertex="1" parent="1">
          <mxGeometry x="812.5" y="1140" width="90" height="40" as="geometry" />
        </mxCell>
        <mxCell id="Iu8UXRmon2b7nD4LNWUl-87" style="edgeStyle=orthogonalEdgeStyle;rounded=0;orthogonalLoop=1;jettySize=auto;html=1;exitX=0.5;exitY=0;exitDx=0;exitDy=0;entryX=0.5;entryY=1;entryDx=0;entryDy=0;" edge="1" parent="1" source="Iu8UXRmon2b7nD4LNWUl-85" target="Iu8UXRmon2b7nD4LNWUl-50">
          <mxGeometry relative="1" as="geometry" />
        </mxCell>
        <mxCell id="Iu8UXRmon2b7nD4LNWUl-85" value="Timers" style="rounded=0;whiteSpace=wrap;html=1;" vertex="1" parent="1">
          <mxGeometry x="442.5" y="1320" width="90" height="40" as="geometry" />
        </mxCell>
        <mxCell id="Iu8UXRmon2b7nD4LNWUl-107" style="edgeStyle=orthogonalEdgeStyle;rounded=0;orthogonalLoop=1;jettySize=auto;html=1;exitX=0.5;exitY=0;exitDx=0;exitDy=0;entryX=0.5;entryY=1;entryDx=0;entryDy=0;" edge="1" parent="1" source="Iu8UXRmon2b7nD4LNWUl-100" target="Iu8UXRmon2b7nD4LNWUl-26">
          <mxGeometry relative="1" as="geometry">
            <Array as="points">
              <mxPoint x="137" y="1240" />
              <mxPoint x="53" y="1240" />
            </Array>
          </mxGeometry>
        </mxCell>
        <mxCell id="Iu8UXRmon2b7nD4LNWUl-121" style="edgeStyle=orthogonalEdgeStyle;rounded=0;orthogonalLoop=1;jettySize=auto;html=1;exitX=1;exitY=0.5;exitDx=0;exitDy=0;entryX=0.5;entryY=1;entryDx=0;entryDy=0;" edge="1" parent="1" source="Iu8UXRmon2b7nD4LNWUl-100" target="Iu8UXRmon2b7nD4LNWUl-79">
          <mxGeometry relative="1" as="geometry" />
        </mxCell>
        <mxCell id="Iu8UXRmon2b7nD4LNWUl-100" value="Decodificador" style="rounded=0;whiteSpace=wrap;html=1;fillColor=#f8cecc;strokeColor=#b85450;" vertex="1" parent="1">
          <mxGeometry x="83.75" y="1400" width="110" height="40" as="geometry" />
        </mxCell>
        <mxCell id="Iu8UXRmon2b7nD4LNWUl-103" style="edgeStyle=orthogonalEdgeStyle;rounded=0;orthogonalLoop=1;jettySize=auto;html=1;exitX=0.5;exitY=0;exitDx=0;exitDy=0;entryX=0.5;entryY=1;entryDx=0;entryDy=0;" edge="1" parent="1" source="Iu8UXRmon2b7nD4LNWUl-101" target="Iu8UXRmon2b7nD4LNWUl-100">
          <mxGeometry relative="1" as="geometry" />
        </mxCell>
        <mxCell id="Iu8UXRmon2b7nD4LNWUl-101" value="Lector SD" style="rounded=0;whiteSpace=wrap;html=1;fillColor=#f8cecc;strokeColor=#b85450;" vertex="1" parent="1">
          <mxGeometry x="177.5" y="1540" width="100" height="50" as="geometry" />
        </mxCell>
        <mxCell id="Iu8UXRmon2b7nD4LNWUl-113" style="edgeStyle=orthogonalEdgeStyle;rounded=0;orthogonalLoop=1;jettySize=auto;html=1;exitX=0.5;exitY=0;exitDx=0;exitDy=0;entryX=0.5;entryY=1;entryDx=0;entryDy=0;" edge="1" parent="1" source="Iu8UXRmon2b7nD4LNWUl-112" target="Iu8UXRmon2b7nD4LNWUl-79">
          <mxGeometry relative="1" as="geometry" />
        </mxCell>
        <mxCell id="Iu8UXRmon2b7nD4LNWUl-112" value="Real Time Clock" style="rounded=0;whiteSpace=wrap;html=1;" vertex="1" parent="1">
          <mxGeometry x="730" y="1280" width="90" height="40" as="geometry" />
        </mxCell>
        <mxCell id="Iu8UXRmon2b7nD4LNWUl-117" style="edgeStyle=orthogonalEdgeStyle;rounded=0;orthogonalLoop=1;jettySize=auto;html=1;exitX=0.5;exitY=0;exitDx=0;exitDy=0;entryX=0.5;entryY=1;entryDx=0;entryDy=0;" edge="1" parent="1" source="Iu8UXRmon2b7nD4LNWUl-116" target="Iu8UXRmon2b7nD4LNWUl-100">
          <mxGeometry relative="1" as="geometry" />
        </mxCell>
        <mxCell id="Iu8UXRmon2b7nD4LNWUl-116" value="Lector USB" style="rounded=0;whiteSpace=wrap;html=1;fillColor=#f8cecc;strokeColor=#b85450;" vertex="1" parent="1">
          <mxGeometry y="1540" width="100" height="50" as="geometry" />
        </mxCell>
        <mxCell id="Iu8UXRmon2b7nD4LNWUl-119" value="" style="group" connectable="0" vertex="1" parent="1">
          <mxGeometry x="-1050" y="1210" width="876.5" height="262" as="geometry" />
        </mxCell>
        <mxCell id="Iu8UXRmon2b7nD4LNWUl-76" value="Matriz LED" style="rounded=0;whiteSpace=wrap;html=1;" vertex="1" parent="Iu8UXRmon2b7nD4LNWUl-119">
          <mxGeometry y="40" width="100" height="40" as="geometry" />
        </mxCell>
        <mxCell id="Iu8UXRmon2b7nD4LNWUl-81" value="&lt;ul&gt;&lt;li&gt;turnOn(int fila, int columna)&lt;/li&gt;&lt;li&gt;changeColor(int fila, int columna, color_t color)&lt;/li&gt;&lt;li style=&quot;border-color: var(--border-color);&quot;&gt;turnOff(int fila, int columna)&lt;/li&gt;&lt;li style=&quot;border-color: var(--border-color);&quot;&gt;blink(int fila, int columna, float interval)&lt;/li&gt;&lt;li style=&quot;border-color: var(--border-color);&quot;&gt;stopBlink(int fila, int columna)&lt;/li&gt;&lt;/ul&gt;" style="text;html=1;strokeColor=none;fillColor=none;align=center;verticalAlign=middle;whiteSpace=wrap;rounded=0;" vertex="1" parent="Iu8UXRmon2b7nD4LNWUl-119">
          <mxGeometry x="126" y="30" width="300" height="70" as="geometry" />
        </mxCell>
        <mxCell id="Iu8UXRmon2b7nD4LNWUl-82" value="color_t {int r, int g, int b}" style="text;html=1;strokeColor=none;fillColor=none;align=center;verticalAlign=middle;whiteSpace=wrap;rounded=0;" vertex="1" parent="Iu8UXRmon2b7nD4LNWUl-119">
          <mxGeometry x="201" width="150" height="30" as="geometry" />
        </mxCell>
        <mxCell id="Iu8UXRmon2b7nD4LNWUl-88" value="Vumetro" style="rounded=0;whiteSpace=wrap;html=1;" vertex="1" parent="Iu8UXRmon2b7nD4LNWUl-119">
          <mxGeometry y="195" width="100" height="40" as="geometry" />
        </mxCell>
        <mxCell id="Iu8UXRmon2b7nD4LNWUl-89" value="&lt;ul&gt;&lt;li&gt;turnOff()&lt;/li&gt;&lt;li style=&quot;border-color: var(--border-color);&quot;&gt;turnOn()&lt;/li&gt;&lt;li&gt;setLevel(int barID, int level)&lt;/li&gt;&lt;li&gt;blinkBar(int barId, float interval)&lt;/li&gt;&lt;/ul&gt;" style="text;html=1;strokeColor=none;fillColor=none;align=center;verticalAlign=middle;whiteSpace=wrap;rounded=0;" vertex="1" parent="Iu8UXRmon2b7nD4LNWUl-119">
          <mxGeometry x="160" y="180" width="217" height="70" as="geometry" />
        </mxCell>
        <mxCell id="Iu8UXRmon2b7nD4LNWUl-98" value="Ecualizador" style="rounded=0;whiteSpace=wrap;html=1;" vertex="1" parent="Iu8UXRmon2b7nD4LNWUl-119">
          <mxGeometry x="464.5" y="201" width="100" height="40" as="geometry" />
        </mxCell>
        <mxCell id="Iu8UXRmon2b7nD4LNWUl-99" value="&lt;ul&gt;&lt;li&gt;changeGain(int filterID, int gain)&lt;/li&gt;&lt;li&gt;getOutput(int filterID)&lt;/li&gt;&lt;li&gt;getAudio()&lt;/li&gt;&lt;li&gt;changePreset(int presetID), rock, jazz, etc&lt;/li&gt;&lt;/ul&gt;" style="text;html=1;strokeColor=none;fillColor=none;align=center;verticalAlign=middle;whiteSpace=wrap;rounded=0;" vertex="1" parent="Iu8UXRmon2b7nD4LNWUl-119">
          <mxGeometry x="607.75" y="186" width="225.5" height="76" as="geometry" />
        </mxCell>
        <mxCell id="Iu8UXRmon2b7nD4LNWUl-109" value="Filtros" style="rounded=0;whiteSpace=wrap;html=1;" vertex="1" parent="Iu8UXRmon2b7nD4LNWUl-119">
          <mxGeometry x="464.5" y="31" width="100" height="40" as="geometry" />
        </mxCell>
        <mxCell id="Iu8UXRmon2b7nD4LNWUl-110" value="&lt;ul&gt;&lt;li&gt;float computeFilter(int filterID, float nextSample)&lt;/li&gt;&lt;/ul&gt;" style="text;html=1;strokeColor=none;fillColor=none;align=center;verticalAlign=middle;whiteSpace=wrap;rounded=0;" vertex="1" parent="Iu8UXRmon2b7nD4LNWUl-119">
          <mxGeometry x="564.5" y="16" width="312" height="70" as="geometry" />
        </mxCell>
      </root>
    </mxGraphModel>
  </diagram>
</mxfile>
